<svg xmlns="http://www.w3.org/2000/svg" viewBox="0 0 400 300">
  <defs>
    <linearGradient id="bg-grad-004" x1="0" y1="0" x2="0" y2="1">
      <stop offset="0%" stop-color="#e8dcc8"/>
      <stop offset="100%" stop-color="#b89a6a"/>
    </linearGradient>
  </defs>
  <rect width="400" height="300" fill="url(#bg-grad-004)"/>
  <!-- Bookshelf frame -->
  <rect x="110" y="55" width="180" height="200" rx="4" fill="#9c7a4a"/>
  <!-- Side panels -->
  <rect x="110" y="55" width="14" height="200" fill="#7a5c30"/>
  <rect x="276" y="55" width="14" height="200" fill="#7a5c30"/>
  <!-- Top panel -->
  <rect x="110" y="55" width="180" height="12" fill="#7a5c30"/>
  <!-- Bottom panel -->
  <rect x="110" y="243" width="180" height="12" fill="#7a5c30"/>
  <!-- Shelves -->
  <rect x="110" y="120" width="180" height="10" fill="#7a5c30"/>
  <rect x="110" y="185" width="180" height="10" fill="#7a5c30"/>
  <!-- Wicker back panel texture -->
  <rect x="124" y="67" width="152" height="53" fill="#c4a06a" opacity="0.6"/>
  <rect x="124" y="130" width="152" height="55" fill="#c4a06a" opacity="0.6"/>
  <rect x="124" y="195" width="152" height="48" fill="#c4a06a" opacity="0.6"/>
  <!-- Wicker lines top section -->
  <line x1="124" y1="80" x2="276" y2="80" stroke="#9c7a4a" stroke-width="1.5" opacity="0.5"/>
  <line x1="124" y1="93" x2="276" y2="93" stroke="#9c7a4a" stroke-width="1.5" opacity="0.5"/>
  <line x1="124" y1="106" x2="276" y2="106" stroke="#9c7a4a" stroke-width="1.5" opacity="0.5"/>
  <!-- Books on shelf 1 -->
  <rect x="130" y="80" width="18" height="38" rx="2" fill="#c0392b"/>
  <rect x="150" y="85" width="14" height="33" rx="2" fill="#2980b9"/>
  <rect x="166" y="78" width="20" height="40" rx="2" fill="#27ae60"/>
  <rect x="188" y="83" width="16" height="35" rx="2" fill="#8e44ad"/>
  <rect x="206" y="80" width="18" height="38" rx="2" fill="#e67e22"/>
  <rect x="226" y="86" width="14" height="32" rx="2" fill="#16a085"/>
  <!-- Books on shelf 2 -->
  <rect x="130" y="145" width="16" height="38" rx="2" fill="#d35400"/>
  <rect x="148" y="140" width="20" height="43" rx="2" fill="#1abc9c"/>
  <rect x="170" y="148" width="14" height="35" rx="2" fill="#9b59b6"/>
  <rect x="186" y="143" width="18" height="40" rx="2" fill="#e74c3c"/>
  <rect x="206" y="147" width="16" height="36" rx="2" fill="#3498db"/>
  <!-- Label -->
  <rect x="110" y="258" width="180" height="30" rx="4" fill="rgba(0,0,0,0.3)"/>
  <text x="200" y="278" font-family="sans-serif" font-size="13" fill="#f5e6d3" text-anchor="middle" font-weight="bold">Wicker Bookshelf</text>
</svg>
