<svg xmlns="http://www.w3.org/2000/svg" viewBox="0 0 400 300">
  <defs>
    <linearGradient id="bg-grad-a005" x1="0" y1="0" x2="0" y2="1">
      <stop offset="0%" stop-color="#e8e0d8"/>
      <stop offset="100%" stop-color="#c0b0a0"/>
    </linearGradient>
    <linearGradient id="mug-grad-a005" x1="0" y1="0" x2="0" y2="1">
      <stop offset="0%" stop-color="#d8cfc8"/>
      <stop offset="100%" stop-color="#a89888"/>
    </linearGradient>
  </defs>
  <rect width="400" height="300" fill="url(#bg-grad-a005)"/>
  <!-- Mug body -->
  <path d="M150,100 L155,240 L245,240 L250,100 Z" fill="url(#mug-grad-a005)"/>
  <rect x="150" y="100" width="100" height="10" rx="4" fill="#d8cfc8"/>
  <!-- Mug handle -->
  <path d="M250,140 Q290,140 290,175 Q290,210 250,210" stroke="#a89888" stroke-width="14" fill="none" stroke-linecap="round"/>
  <path d="M250,140 Q282,140 282,175 Q282,202 250,210" stroke="#c0b0a0" stroke-width="6" fill="none" stroke-linecap="round"/>
  <!-- Speckle pattern -->
  <circle cx="168" cy="130" r="3" fill="#6a5a50" opacity="0.7"/>
  <circle cx="185" cy="145" r="2.5" fill="#6a5a50" opacity="0.6"/>
  <circle cx="210" cy="125" r="3.5" fill="#6a5a50" opacity="0.7"/>
  <circle cx="230" cy="140" r="2" fill="#6a5a50" opacity="0.5"/>
  <circle cx="175" cy="165" r="3" fill="#6a5a50" opacity="0.6"/>
  <circle cx="200" cy="155" r="2.5" fill="#6a5a50" opacity="0.7"/>
  <circle cx="220" cy="170" r="3" fill="#6a5a50" opacity="0.6"/>
  <circle cx="162" cy="185" r="2" fill="#6a5a50" opacity="0.5"/>
  <circle cx="190" cy="195" r="3.5" fill="#6a5a50" opacity="0.7"/>
  <circle cx="215" cy="190" r="2.5" fill="#6a5a50" opacity="0.6"/>
  <circle cx="235" cy="160" r="2" fill="#6a5a50" opacity="0.5"/>
  <circle cx="172" cy="210" r="3" fill="#6a5a50" opacity="0.6"/>
  <circle cx="205" cy="220" r="2.5" fill="#6a5a50" opacity="0.7"/>
  <circle cx="228" cy="210" r="3" fill="#6a5a50" opacity="0.5"/>
  <circle cx="160" cy="150" r="2" fill="#8a7a70" opacity="0.5"/>
  <circle cx="240" cy="195" r="2.5" fill="#8a7a70" opacity="0.5"/>
  <circle cx="195" cy="175" r="2" fill="#8a7a70" opacity="0.4"/>
  <!-- Steam -->
  <path d="M180,95 Q175,80 180,65" stroke="#bbb" stroke-width="3" fill="none" stroke-linecap="round" opacity="0.5"/>
  <path d="M200,92 Q195,77 200,62" stroke="#bbb" stroke-width="3" fill="none" stroke-linecap="round" opacity="0.5"/>
  <path d="M220,95 Q215,80 220,65" stroke="#bbb" stroke-width="3" fill="none" stroke-linecap="round" opacity="0.5"/>
  <!-- Label -->
  <rect x="115" y="255" width="170" height="30" rx="4" fill="rgba(0,0,0,0.25)"/>
  <text x="200" y="275" font-family="sans-serif" font-size="13" fill="#fff" text-anchor="middle" font-weight="bold">Speckled Clay Mug</text>
</svg>
