<svg xmlns="http://www.w3.org/2000/svg" viewBox="0 0 400 300">
  <defs>
    <linearGradient id="bg-grad-006" x1="0" y1="0" x2="1" y2="1">
      <stop offset="0%" stop-color="#f0f0f0"/>
      <stop offset="100%" stop-color="#d0d0d0"/>
    </linearGradient>
  </defs>
  <rect width="400" height="300" fill="url(#bg-grad-006)"/>
  <!-- Camera body -->
  <rect x="110" y="100" width="180" height="130" rx="10" fill="#f5f5f0"/>
  <!-- Rainbow stripe -->
  <rect x="110" y="100" width="180" height="22" rx="10" fill="#e8e8e0"/>
  <rect x="110" y="100" width="180" height="8" rx="0" fill="#e8302a"/>
  <rect x="110" y="108" width="180" height="6" fill="#f5a623"/>
  <rect x="114" y="108" width="176" height="6" fill="#f5a623"/>
  <rect x="114" y="114" width="176" height="5" fill="#f8e71c"/>
  <rect x="114" y="119" width="176" height="3" fill="#7ed321"/>
  <!-- Viewfinder -->
  <rect x="240" y="108" width="36" height="22" rx="3" fill="#ccc"/>
  <rect x="243" y="111" width="30" height="16" rx="2" fill="#aaa"/>
  <!-- Lens -->
  <circle cx="185" cy="175" r="42" fill="#ddd"/>
  <circle cx="185" cy="175" r="36" fill="#bbb"/>
  <circle cx="185" cy="175" r="28" fill="#333"/>
  <circle cx="185" cy="175" r="20" fill="#1a1a2e"/>
  <circle cx="185" cy="175" r="10" fill="#0a0a18"/>
  <circle cx="178" cy="168" r="4" fill="rgba(255,255,255,0.3)"/>
  <!-- Shutter button -->
  <circle cx="248" cy="145" r="10" fill="#e8302a"/>
  <circle cx="248" cy="145" r="6" fill="#c0201a"/>
  <!-- Flash -->
  <rect x="120" y="135" width="30" height="20" rx="3" fill="#e8e0c0"/>
  <rect x="122" y="137" width="26" height="16" rx="2" fill="#f5f0d0"/>
  <!-- Polaroid label -->
  <rect x="120" y="215" width="80" height="12" rx="2" fill="#333"/>
  <text x="160" y="225" font-family="sans-serif" font-size="8" fill="#fff" text-anchor="middle" font-weight="bold">POLAROID</text>
  <!-- Label -->
  <rect x="110" y="245" width="180" height="30" rx="4" fill="rgba(0,0,0,0.3)"/>
  <text x="200" y="265" font-family="sans-serif" font-size="13" fill="#fff" text-anchor="middle" font-weight="bold">Polaroid Camera</text>
</svg>
